<svg xmlns="http://www.w3.org/2000/svg" viewBox="0 0 888 24" width="888" height="24"><g stroke="#38ee47" stroke-linecap="round"><path d="M12 3.627c-4.407 0-7.978 3.748-7.978 8.375 0 4.623 3.571 8.371 7.978 8.371 4.406 0 7.978-3.748 7.978-8.371 0-4.627-3.572-8.375-7.978-8.375" fill="#ffffff" stroke-linejoin="bevel"/><path d="M7.714 11.868l3.165 3.956 6.33-7.78" fill="none" stroke-dasharray="14.945035910624417,0.15095995869317608" stroke-dashoffset="14.945036" stroke-miterlimit="1"/></g><g stroke="#38ee47" stroke-linecap="round"><path d="M36 3.679c-4.407 0-7.978 3.725-7.978 8.323 0 4.594 3.571 8.319 7.978 8.319 4.406 0 7.978-3.725 7.978-8.319 0-4.598-3.572-8.323-7.978-8.323" fill="#ffffff" stroke-linejoin="bevel"/><path d="M31.714 11.868l3.165 3.956 6.33-7.78" fill="none" stroke-dasharray="14.945035910624417,0.15095995869317608" stroke-dashoffset="14.945036" stroke-miterlimit="1"/></g><g stroke="#38ee47" stroke-linecap="round"><path d="M60 3.835c-4.407 0-7.978 3.655-7.978 8.167 0 4.508 3.571 8.163 7.978 8.163 4.406 0 7.978-3.655 7.978-8.163 0-4.512-3.572-8.167-7.978-8.167" fill="#ffffff" stroke-linejoin="bevel"/><path d="M55.714 11.868l3.165 3.956 6.33-7.78" fill="none" stroke-dasharray="14.945035910624417,0.15095995869317608" stroke-dashoffset="14.945036" stroke-miterlimit="1"/></g><g stroke="#38ee47" stroke-linecap="round"><path d="M84 4.095c-4.407 0-7.978 3.539-7.978 7.907 0 4.364 3.571 7.903 7.978 7.903 4.406 0 7.978-3.539 7.978-7.903 0-4.368-3.572-7.907-7.978-7.907" fill="#ffffff" stroke-linejoin="bevel"/><path d="M79.714 11.868l3.165 3.956 6.33-7.78" fill="none" stroke-dasharray="14.945035910624417,0.15095995869317608" stroke-dashoffset="14.945036" stroke-miterlimit="1"/></g><g stroke="#38ee47" stroke-linecap="round"><path d="M108 4.46c-4.407 0-7.978 3.375-7.978 7.542 0 4.163 3.571 7.538 7.978 7.538 4.406 0 7.978-3.375 7.978-7.538 0-4.167-3.572-7.542-7.978-7.542" fill="#ffffff" stroke-linejoin="bevel"/><path d="M103.714 11.868l3.165 3.956 6.33-7.78" fill="none" stroke-dasharray="14.945035910624417,0.15095995869317608" stroke-dashoffset="14.945036" stroke-miterlimit="1"/></g><g stroke="#38ee47" stroke-linecap="round"><path d="M132 4.928c-4.407 0-7.978 3.166-7.978 7.074 0 3.904 3.571 7.07 7.978 7.07 4.406 0 7.978-3.166 7.978-7.07 0-3.908-3.572-7.074-7.978-7.074" fill="#ffffff" stroke-linejoin="bevel"/><path d="M127.714 11.868l3.165 3.956 6.33-7.78" fill="none" stroke-dasharray="14.945035910624417,0.15095995869317608" stroke-dashoffset="14.945036" stroke-miterlimit="1"/></g><g stroke="#38ee47" stroke-linecap="round"><path d="M156 5.5c-4.407 0-7.978 2.91-7.978 6.502 0 3.588 3.571 6.498 7.978 6.498 4.406 0 7.978-2.91 7.978-6.498 0-3.592-3.572-6.502-7.978-6.502" fill="#ffffff" stroke-linejoin="bevel"/><path d="M151.714 11.868l3.165 3.956 6.33-7.78" fill="none" stroke-dasharray="14.945035910624417,0.15095995869317608" stroke-dashoffset="14.945036" stroke-miterlimit="1"/></g><g stroke="#38ee47" stroke-linecap="round"><path d="M180 6.177c-4.407 0-7.978 2.606-7.978 5.825 0 3.215 3.571 5.821 7.978 5.821 4.406 0 7.978-2.606 7.978-5.821 0-3.219-3.572-5.825-7.978-5.825" fill="#ffffff" stroke-linejoin="bevel"/><path d="M175.714 11.868l3.165 3.956 6.33-7.78" fill="none" stroke-dasharray="14.945035910624417,0.15095995869317608" stroke-dashoffset="14.945036" stroke-miterlimit="1"/></g><g stroke="#38ee47" stroke-linecap="round"><path d="M204 6.957c-4.407 0-7.978 2.257-7.978 5.045 0 2.784 3.571 5.041 7.978 5.041 4.406 0 7.978-2.257 7.978-5.041 0-2.788-3.572-5.045-7.978-5.045" fill="#ffffff" stroke-linejoin="bevel"/><path d="M199.714 11.868l3.165 3.956 6.33-7.78" fill="none" stroke-dasharray="14.945035910624417,0.15095995869317608" stroke-dashoffset="14.945036" stroke-miterlimit="1"/></g><g stroke="#38ee47" stroke-linecap="round"><path d="M228 7.842c-4.407 0-7.978 1.861-7.978 4.16 0 2.295 3.571 4.156 7.978 4.156 4.406 0 7.978-1.861 7.978-4.156 0-2.299-3.572-4.16-7.978-4.16" fill="#ffffff" stroke-linejoin="bevel"/><path d="M223.714 11.868l3.165 3.956 6.33-7.78" fill="none" stroke-dasharray="14.945035910624417,0.15095995869317608" stroke-dashoffset="14.945036" stroke-miterlimit="1"/></g><g stroke="#38ee47" stroke-linecap="round"><path d="M252 8.83c-4.407 0-7.978 1.419-7.978 3.172 0 1.749 3.571 3.168 7.978 3.168 4.406 0 7.978-1.419 7.978-3.168 0-1.753-3.572-3.172-7.978-3.172" fill="#ffffff" stroke-linejoin="bevel"/><path d="M247.714 11.868l3.165 3.956 6.33-7.78" fill="none" stroke-dasharray="14.945035910624417,0.15095995869317608" stroke-dashoffset="14.945036" stroke-miterlimit="1"/></g><g stroke="#38ee47" stroke-linecap="round"><path d="M276 9.923c-4.407 0-7.978.93-7.978 2.079 0 1.145 3.571 2.075 7.978 2.075 4.406 0 7.978-.93 7.978-2.075 0-1.149-3.572-2.079-7.978-2.079" fill="#ffffff" stroke-linejoin="bevel"/><path d="M271.714 11.868l3.165 3.956 6.33-7.78" fill="none" stroke-dasharray="14.945035910624417,0.15095995869317608" stroke-dashoffset="14.945036" stroke-miterlimit="1"/></g><g stroke="#38ee47" stroke-linecap="round"><path d="M300 11.12c-4.407 0-7.978.394-7.978.882 0 .484 3.571.878 7.978.878 4.406 0 7.978-.394 7.978-.878 0-.488-3.572-.882-7.978-.882" fill="#ffffff" stroke-linejoin="bevel"/><path d="M295.714 11.868l3.165 3.956 6.33-7.78" fill="none" stroke-dasharray="14.945035910624417,0.15095995869317608" stroke-dashoffset="14.945036" stroke-miterlimit="1"/></g><g stroke="#38ee47" stroke-linecap="round"><path d="M324 12.42c-4.407 0-7.978-.188-7.978-.418 0-.234 3.571-.422 7.978-.422 4.406 0 7.978.188 7.978.422 0 .23-3.572.418-7.978.418" fill="#ffffff" stroke-linejoin="bevel"/><path d="M319.714 11.868l3.165 3.956 6.33-7.78" fill="none" stroke-dasharray="14.945035910624417,0.15095995869317608" stroke-dashoffset="14.945036" stroke-miterlimit="1"/></g><g stroke="#38ee47" stroke-linecap="round"><path d="M348 13.825c-4.407 0-7.978-.817-7.978-1.823 0-1.01 3.571-1.827 7.978-1.827 4.406 0 7.978.817 7.978 1.827 0 1.006-3.572 1.823-7.978 1.823" fill="#ffffff" stroke-linejoin="bevel"/><path d="M343.714 11.868l3.165 3.956 6.33-7.78" fill="none" stroke-dasharray="14.945035910624417,0.15095995869317608" stroke-dashoffset="14.945036" stroke-miterlimit="1"/></g><g stroke="#38ee47" stroke-linecap="round"><path d="M372 15.334c-4.407 0-7.978-1.492-7.978-3.332 0-1.844 3.571-3.336 7.978-3.336 4.406 0 7.978 1.492 7.978 3.336 0 1.84-3.572 3.332-7.978 3.332" fill="#ffffff" stroke-linejoin="bevel"/><path d="M367.714 11.868l3.165 3.956 6.33-7.78" fill="none" stroke-dasharray="14.945035910624417,0.15095995869317608" stroke-dashoffset="14.945036" stroke-miterlimit="1"/></g><g stroke="#38ee47" stroke-linecap="round"><path d="M396 16.947c-4.407 0-7.978-2.214-7.978-4.945 0-2.735 3.571-4.949 7.978-4.949 4.406 0 7.978 2.214 7.978 4.949 0 2.731-3.572 4.945-7.978 4.945" fill="#ffffff" stroke-linejoin="bevel"/><path d="M391.714 11.868l3.165 3.956 6.33-7.78" fill="none" stroke-dasharray="14.945035910624417,0.15095995869317608" stroke-dashoffset="14.945036" stroke-miterlimit="1"/></g><g stroke="#38ee47" stroke-linecap="round"><path d="M420 18.664c-4.407 0-7.978-2.983-7.978-6.662 0-3.683 3.571-6.666 7.978-6.666 4.406 0 7.978 2.983 7.978 6.666 0 3.679-3.572 6.662-7.978 6.662" fill="#ffffff" stroke-linejoin="bevel"/><path d="M415.714 11.868l3.165 3.956 6.33-7.78" fill="none" stroke-dasharray="14.945035910624417,0.15095995869317608" stroke-dashoffset="14.945036" stroke-miterlimit="1"/></g><g stroke="#38ee47" stroke-linecap="round"><path d="M444 3.628c-4.407 0-7.978 3.747-7.978 8.374 0 4.623 3.571 8.37 7.978 8.37 4.406 0 7.978-3.747 7.978-8.37 0-4.627-3.572-8.374-7.978-8.374" fill="#ffffff" stroke-linejoin="bevel"/><path d="M439.714 11.868l3.165 3.956 6.33-7.78" fill="none" stroke-dasharray="14.945202531256301,0.15079333806129236" stroke-dashoffset="14.945036" stroke-miterlimit="1"/></g><g stroke="#38ee47" stroke-linecap="round"><path d="M468 3.862c-4.407 0-7.978 3.643-7.978 8.14 0 4.493 3.571 8.136 7.978 8.136 4.406 0 7.978-3.643 7.978-8.136 0-4.497-3.572-8.14-7.978-8.14" fill="#ffffff" stroke-linejoin="bevel"/><path d="M463.714 11.868l3.165 3.956 6.33-7.78" fill="none" stroke-dasharray="14.997040061175753,0.09895580814184178" stroke-dashoffset="14.945036" stroke-miterlimit="1"/></g><g stroke="#38ee47" stroke-linecap="round"><path d="M492 4.516c-4.407 0-7.978 3.35-7.978 7.486 0 4.132 3.571 7.482 7.978 7.482 4.406 0 7.978-3.35 7.978-7.482 0-4.136-3.572-7.486-7.978-7.486" fill="#ffffff" stroke-linejoin="bevel"/><path d="M487.714 11.868l3.165 3.956 6.33-7.78" fill="none" stroke-dasharray="0.045448739490914145,15.050547129826679" stroke-dashoffset="14.945036" stroke-miterlimit="1"/></g><g stroke="#38ee47" stroke-linecap="round"><path d="M516 5.589c-4.407 0-7.978 2.87-7.978 6.413 0 3.539 3.571 6.409 7.978 6.409 4.406 0 7.978-2.87 7.978-6.409 0-3.543-3.572-6.413-7.978-6.413" fill="#ffffff" stroke-linejoin="bevel"/><path d="M511.714 11.868l3.165 3.956 6.33-7.78" fill="none" stroke-dasharray="0.2824203048369734,14.81357556448062" stroke-dashoffset="14.945036" stroke-miterlimit="1"/></g><g stroke="#38ee47" stroke-linecap="round"><path d="M540 7.081c-4.407 0-7.978 2.202-7.978 4.921 0 2.715 3.571 4.917 7.978 4.917 4.406 0 7.978-2.202 7.978-4.917 0-2.719-3.572-4.921-7.978-4.921" fill="#ffffff" stroke-linejoin="bevel"/><path d="M535.714 11.868l3.165 3.956 6.33-7.78" fill="none" stroke-dasharray="0.6119588878963381,14.484036981421255" stroke-dashoffset="14.945036" stroke-miterlimit="1"/></g><g stroke="#38ee47" stroke-linecap="round"><path d="M564 8.992c-4.407 0-7.978 1.346-7.978 3.01 0 1.66 3.571 3.006 7.978 3.006 4.406 0 7.978-1.346 7.978-3.006 0-1.664-3.572-3.01-7.978-3.01" fill="#ffffff" stroke-linejoin="bevel"/><path d="M559.714 11.868l3.165 3.956 6.33-7.78" fill="none" stroke-dasharray="1.034064488669006,14.06193138064859" stroke-dashoffset="14.945036" stroke-miterlimit="1"/></g><g stroke="#38ee47" stroke-linecap="round"><path d="M588 11.322c-4.407 0-7.978.303-7.978.68 0 .373 3.571.676 7.978.676 4.406 0 7.978-.303 7.978-.676 0-.377-3.572-.68-7.978-.68" fill="#ffffff" stroke-linejoin="bevel"/><path d="M583.714 11.868l3.165 3.956 6.33-7.78" fill="none" stroke-dasharray="1.5487371071549798,13.547258762162613" stroke-dashoffset="14.945036" stroke-miterlimit="1"/></g><g stroke="#38ee47" stroke-linecap="round"><path d="M612 14.07c-4.407 0-7.978-.926-7.978-2.068 0-1.146 3.571-2.072 7.978-2.072 4.406 0 7.978.926 7.978 2.072 0 1.142-3.572 2.068-7.978 2.068" fill="#ffffff" stroke-linejoin="bevel"/><path d="M607.714 11.868l3.165 3.956 6.33-7.78" fill="none" stroke-dasharray="2.1559767433542567,12.940019125963339" stroke-dashoffset="14.945036" stroke-miterlimit="1"/></g><g stroke="#38ee47" stroke-linecap="round"><path d="M636 17.239c-4.407 0-7.978-2.345-7.978-5.237 0-2.896 3.571-5.241 7.978-5.241 4.406 0 7.978 2.345 7.978 5.241 0 2.892-3.572 5.237-7.978 5.237" fill="#ffffff" stroke-linejoin="bevel"/><path d="M631.714 11.868l3.165 3.956 6.33-7.78" fill="none" stroke-dasharray="2.85578339726684,12.240212472050754" stroke-dashoffset="14.945036" stroke-miterlimit="1"/></g><g stroke="#38ee47" stroke-linecap="round"><path d="M660 3.63c-4.407 0-7.978 3.747-7.978 8.372 0 4.621 3.571 8.368 7.978 8.368 4.406 0 7.978-3.747 7.978-8.368 0-4.625-3.572-8.372-7.978-8.372" fill="#ffffff" stroke-linejoin="bevel"/><path d="M655.714 11.868l3.165 3.956 6.33-7.78" fill="none" stroke-dasharray="3.6481570688927274,11.447838800424867" stroke-dashoffset="14.945036" stroke-miterlimit="1"/></g><g stroke="#38ee47" stroke-linecap="round"><path d="M684 3.88c-4.407 0-7.978 3.635-7.978 8.122 0 4.483 3.571 8.118 7.978 8.118 4.406 0 7.978-3.635 7.978-8.118 0-4.487-3.572-8.122-7.978-8.122" fill="#ffffff" stroke-linejoin="bevel"/><path d="M679.714 11.868l3.165 3.956 6.33-7.78" fill="none" stroke-dasharray="4.5330977582319205,10.562898111085673" stroke-dashoffset="14.945036" stroke-miterlimit="1"/></g><g stroke="#38ee47" stroke-linecap="round"><path d="M708 4.532c-4.407 0-7.978 3.343-7.978 7.47 0 4.123 3.571 7.466 7.978 7.466 4.406 0 7.978-3.343 7.978-7.466 0-4.127-3.572-7.47-7.978-7.47" fill="#ffffff" stroke-linejoin="bevel"/><path d="M703.714 11.868l3.165 3.956 6.33-7.78" fill="none" stroke-dasharray="5.510605465284417,9.585390404033175" stroke-dashoffset="14.945036" stroke-miterlimit="1"/></g><g stroke="#38ee47" stroke-linecap="round"><path d="M732 5.587c-4.407 0-7.978 2.871-7.978 6.415 0 3.54 3.571 6.411 7.978 6.411 4.406 0 7.978-2.871 7.978-6.411 0-3.544-3.572-6.415-7.978-6.415" fill="#ffffff" stroke-linejoin="bevel"/><path d="M727.714 11.868l3.165 3.956 6.33-7.78" fill="none" stroke-dasharray="6.580680190050217,8.515315679267378" stroke-dashoffset="14.945036" stroke-miterlimit="1"/></g><g stroke="#38ee47" stroke-linecap="round"><path d="M756 7.045c-4.407 0-7.978 2.218-7.978 4.957 0 2.735 3.571 4.953 7.978 4.953 4.406 0 7.978-2.218 7.978-4.953 0-2.739-3.572-4.957-7.978-4.957" fill="#ffffff" stroke-linejoin="bevel"/><path d="M751.714 11.868l3.165 3.956 6.33-7.78" fill="none" stroke-dasharray="7.7433219325293265,7.352673936788268" stroke-dashoffset="14.945036" stroke-miterlimit="1"/></g><g stroke="#38ee47" stroke-linecap="round"><path d="M780 8.905c-4.407 0-7.978 1.385-7.978 3.097 0 1.708 3.571 3.093 7.978 3.093 4.406 0 7.978-1.385 7.978-3.093 0-1.712-3.572-3.097-7.978-3.097" fill="#ffffff" stroke-linejoin="bevel"/><path d="M775.714 11.868l3.165 3.956 6.33-7.78" fill="none" stroke-dasharray="8.998530692721726,6.097465176595869" stroke-dashoffset="14.945036" stroke-miterlimit="1"/></g><g stroke="#38ee47" stroke-linecap="round"><path d="M804 11.168c-4.407 0-7.978.372-7.978.834 0 .458 3.571.83 7.978.83 4.406 0 7.978-.372 7.978-.83 0-.462-3.572-.834-7.978-.834" fill="#ffffff" stroke-linejoin="bevel"/><path d="M799.714 11.868l3.165 3.956 6.33-7.78" fill="none" stroke-dasharray="10.346306470627447,4.749689398690147" stroke-dashoffset="14.945036" stroke-miterlimit="1"/></g><g stroke="#38ee47" stroke-linecap="round"><path d="M828 13.834c-4.407 0-7.978-.821-7.978-1.832 0-1.015 3.571-1.836 7.978-1.836 4.406 0 7.978.821 7.978 1.836 0 1.011-3.572 1.832-7.978 1.832" fill="#ffffff" stroke-linejoin="bevel"/><path d="M823.714 11.868l3.165 3.956 6.33-7.78" fill="none" stroke-dasharray="11.786649266246462,3.3093466030711323" stroke-dashoffset="14.945036" stroke-miterlimit="1"/></g><g stroke="#38ee47" stroke-linecap="round"><path d="M852 16.902c-4.407 0-7.978-2.194-7.978-4.9 0-2.71 3.571-4.904 7.978-4.904 4.406 0 7.978 2.194 7.978 4.904 0 2.706-3.572 4.9-7.978 4.9" fill="#ffffff" stroke-linejoin="bevel"/><path d="M847.714 11.868l3.165 3.956 6.33-7.78" fill="none" stroke-dasharray="13.319559079578795,1.7764367897387998" stroke-dashoffset="14.945036" stroke-miterlimit="1"/></g><g stroke="#38ee47" stroke-linecap="round"><path d="M876 20.373c-4.407 0-7.978-3.748-7.978-8.371 0-4.627 3.571-8.375 7.978-8.375 4.406 0 7.978 3.748 7.978 8.375 0 4.623-3.572 8.371-7.978 8.371" fill="#ffffff" stroke-linejoin="bevel"/><path d="M871.714 11.868l3.165 3.956 6.33-7.78" fill="none" stroke-dasharray="14.945035910624417,0.15095995869317608" stroke-dashoffset="14.945036" stroke-miterlimit="1"/></g></svg>